<?xml version="1.0" encoding="utf-8"?>
<!-- Generator: Adobe Illustrator 24.0.1, SVG Export Plug-In . SVG Version: 6.00 Build 0)  -->
<svg version="1.1" id="Layer_1" xmlns="http://www.w3.org/2000/svg" xmlns:xlink="http://www.w3.org/1999/xlink" x="0px" y="0px"
	 viewBox="0 0 32 28" style="enable-background:new 0 0 32 28;" xml:space="preserve">
<g id="Offline_icon" transform="translate(-223 -93)">
	<g id="noun_offline_2330407_1_" transform="translate(209.8 19.473)">
		<g id="Group_459" transform="translate(26.4 88.272)">
			<g id="Group_454" transform="translate(0 5.319)">
				<g id="Group_453">
					<path id="Path_1147" d="M-4.4-12.4L-4-12l1.2,1.2l1.7,1.7L1-7l2.3,2.3l2.3,2.3l2.1,2.1l1.8,1.8l1.3,1.3C11,3,11.2,3.2,11.4,3.4
						l0,0l0.4-1.5c-0.1,0-0.1,0-0.2,0h0.2C11.2,2,10.5,2,9.7,2H-2.8C-3.4,2-4,2-4.6,2c-0.3,0-0.6,0-0.9-0.1h0.2
						C-5.9,1.8-6.5,1.7-7,1.4l0.2,0.1c-0.4-0.2-0.8-0.4-1.1-0.6c0,0-0.1-0.1-0.2-0.1c-0.1-0.1,0.2,0.1,0,0l-0.1-0.1
						c-0.2-0.1-0.3-0.3-0.4-0.4S-8.9,0-9-0.2l-0.1-0.1L-9-0.2l-0.1-0.1c-0.1-0.1-0.1-0.2-0.2-0.2c-0.2-0.4-0.4-0.7-0.6-1.1l0.1,0.2
						C-10-2-10.2-2.5-10.3-3.1c0,0.1,0,0.2,0,0.2c-0.1-0.6-0.1-1.2,0-1.7c0,0.1,0,0.2,0,0.2C-10.2-5-10-5.5-9.8-6.1l-0.1,0.2
						C-9.7-6.2-9.5-6.6-9.3-7c0.1-0.1,0.1-0.2,0.2-0.2c0.1-0.2-0.1,0.1,0,0L-9-7.3c0.1-0.2,0.3-0.3,0.4-0.5S-8.3-8-8.2-8.2l0.1-0.1
						c0.1-0.1-0.2,0.2,0,0c0.1,0,0.2-0.1,0.3-0.1C-7.5-8.7-7.1-8.9-6.7-9l-0.2,0.1c0.3-0.1,0.7-0.3,1-0.3c0.2,0,0.4-0.1,0.5-0.1
						c0.3,0,0.6-0.3,0.7-0.5c0-0.1,0.1-0.2,0.1-0.3c0.2-0.4,0.4-0.8,0.7-1.2c0.1-0.1,0.1-0.2,0.2-0.3c0.1-0.1-0.1,0.2,0,0l0.1-0.1
						c0.2-0.2,0.3-0.4,0.5-0.5c0.4-0.3,0.4-0.9,0.1-1.3c-0.3-0.4-0.9-0.4-1.3-0.1l-0.1,0.1c-0.8,0.8-1.5,1.8-1.9,2.9
						c0.2-0.1,0.4-0.3,0.6-0.4c-1.8,0.3-3.5,1.2-4.6,2.6C-11-7.8-11.5-6.9-11.8-6s-0.4,1.9-0.3,2.8C-12-1.2-11,0.7-9.5,2
						c1.4,1.2,3.1,1.8,5,1.8h15.7c0.4,0,0.8,0,1.2-0.1C12.6,3.6,12.9,3.4,13,3c0.1-0.3,0-0.7-0.2-0.9l-0.4-0.4l-1.2-1.2L9.5-1.1
						L7.4-3.2L5.1-5.5L2.8-7.8L0.7-9.9l-1.8-1.8L-2.4-13c-0.2-0.2-0.4-0.4-0.6-0.6l0,0c-0.5-0.4-1-0.4-1.4,0
						C-4.7-13.2-4.7-12.7-4.4-12.4L-4.4-12.4z"/>
				</g>
			</g>
			<g id="Group_456" transform="translate(10.202 2.385)">
				<g id="Group_455">
					<path id="Path_1148" d="M-10.7-11.3c0.1-0.1,0.3-0.1,0.4-0.2l-0.2,0.1c0.8-0.3,1.5-0.5,2.4-0.6h-0.2c0.8-0.1,1.6-0.1,2.5,0H-6
						c0.8,0.1,1.6,0.3,2.4,0.6l-0.2-0.1c0.4,0.2,0.8,0.4,1.2,0.6c0.2,0.1,0.4,0.3,0.6,0.4l0.1,0.1c0,0,0,0,0.1,0
						c0,0-0.2-0.2-0.1-0.1c0.1,0.1,0.2,0.1,0.3,0.2c0.4,0.3,0.7,0.6,1,1C-0.9-9.1-0.8-9-0.7-8.9l0.1,0.1c0.1,0.1-0.1-0.1-0.1-0.1
						s0,0.1,0.1,0.1c0.1,0.2,0.3,0.4,0.4,0.6C0-7.8,0.3-7.3,0.5-6.9L0.4-7.1C0.6-6.5,0.8-5.9,1-5.2c0,0.3,0.3,0.5,0.6,0.6
						C2-4.5,2.5-4.4,2.9-4.2L2.7-4.3C3-4.2,3.3-4,3.6-3.8c0.1,0,0.1,0.1,0.2,0.2c0.1,0,0.2,0.2,0,0l0.1,0.1c0.1,0,0.3,0.1,0.4,0.3
						C4.4-3.1,4.6-3,4.7-2.8l0.1,0.1c0.1,0.1-0.1-0.2,0-0.1C4.9-2.7,4.9-2.6,5-2.6c0.2,0.3,0.4,0.6,0.5,1L5.3-1.8
						c0.2,0.5,0.3,0.9,0.4,1.4c0-0.1,0-0.2,0-0.2c0.1,0.5,0.1,1,0,1.5c0-0.1,0-0.2,0-0.2C5.6,1.1,5.5,1.6,5.3,2l0.1-0.2
						c-0.1,0.3-0.3,0.7-0.5,1c0,0.1-0.1,0.1-0.2,0.2s-0.2,0.2,0,0c0,0,0,0.1-0.1,0.1c0,0.1-0.2,0.2-0.3,0.3C4,3.8,4,4.4,4.4,4.7
						C4.8,5,5.3,5,5.6,4.7C6.3,4,6.9,3.1,7.2,2.1c0.9-2.8-0.1-5.8-2.5-7.4C3.9-5.8,3-6.2,2.1-6.4l0.6,0.6C2.3-8,1.1-10-0.6-11.5
						c-3.1-2.7-7.5-3.3-11.1-1.5c-0.2,0.1-0.4,0.3-0.4,0.6c-0.1,0.2,0,0.5,0.1,0.7C-11.8-11.2-11.2-11-10.7-11.3L-10.7-11.3z"/>
				</g>
			</g>
			<g id="Group_458" transform="translate(2.258 0)">
				<g id="Group_457">
					<path id="Path_1149" d="M-11.9-12.4l0.6,0.7l1.8,1.8l2.6,2.6l3.2,3.2l3.5,3.5l3.5,3.5l3.3,3.3L9.4,9l2,2
						c0.3,0.3,0.6,0.6,0.9,0.9l0,0c0.4,0.4,0.9,0.4,1.3,0s0.4-0.9,0-1.3l0,0L13,10l-1.8-1.8L8.6,5.6L5.5,2.4L2-1.1l-3.5-3.5
						l-3.3-3.3l-2.8-2.8l-2-2c-0.3-0.3-0.6-0.6-0.9-0.9l0,0c-0.4-0.4-0.9-0.4-1.3,0S-12.3-12.7-11.9-12.4L-11.9-12.4L-11.9-12.4z"/>
				</g>
			</g>
		</g>
	</g>
</g>
</svg>
